{"title":"Taken 2 2012 DVDRIP XVID AC3 5.1 HS","uid":7937775,"size":1455477362,"categoryP":"video","categoryS":"movies","magnet":"?xt=urn:btih:d08c846df79b2e2ab9f5e2d32328fce6a89f6db4&amp;dn=Taken+2+2012+DVDRIP+XVID+AC3+5.1+HS&amp;tr=udp%3A%2F%2Ftracker.openbittorrent.com%3A80&amp;tr=udp%3A%2F%2Fopen.demonii.com%3A1337&amp;tr=udp%3A%2F%2Ftracker.coppersurfer.tk%3A6969&amp;tr=udp%3A%2F%2Fexodus.desync.com%3A6969","seeders":0,"leechers":1,"uploader":"xxxlavalxxx","files":3,"time":1355907376,"description":" &lt;a href=&quot;http://www.shotpix.com/images/06454501194209341974.jpg&quot; rel=&quot;nofollow&quot; target=&quot;_NEW&quot;&gt;http://www.shotpix.com/images/06454501194209341974.jpg&lt;/a&gt;\n\n &lt;a href=&quot;\nhttp://www.imdb.com/title/tt1397280/&quot; rel=&quot;nofollow&quot; target=&quot;_NEW&quot;&gt;\nhttp://www.imdb.com/title/tt1397280/&lt;/a&gt;\n\n\n\nPlot:In Istanbul, retired CIA operative Bryan Mills and his wife are taken hostage by the father of a kidnapper Mills killed while rescuing his daughter.\n \n\n\nDirector: \nOlivier Megaton\n\n Writers: \nLuc Besson (screenplay), Robert Mark Kamen (screenplay)\n \nStars:\n Liam Neeson, Famke Janssen and Maggie Grace\n\nGenres:\n Action | Crime | Thriller \n\n\nCountry:\nFrance \n\nLanguage:\nEnglish \n\n\nFormat                                   : AVI\nFormat/Info                              : Audio Video Interleave\nFile size                                : 1.36 GiB\nDuration                                 : 1h 32mn\nOverall bit rate                         : 2 095 Kbps\nWriting application                      : VirtualDubMod 1.5.10.2 (build 2542/release)\nWriting library                          : VirtualDubMod build 2542/release\n\nVideo\nID                                       : 0\nFormat                                   : MPEG-4 Visual\nFormat profile                           : Advanced Simple@L5\nFormat settings, BVOP                    : 4\nFormat settings, QPel                    : No\nFormat settings, GMC                     : No warppoints\nFormat settings, Matrix                  : Default (H.263)\nMuxing mode                              : Packed bitstream\nCodec ID                                 : XVID\nCodec ID/Hint                            : XviD\nDuration                                 : 1h 32mn\nBit rate                                 : 1 704 Kbps\nWidth                                    : 720 pixels\nHeight                                   : 304 pixels\nDisplay aspect ratio                     : 2.35:1\nFrame rate                               : 23.976 fps\nColor space                              : YUV\nChroma subsampling                       : 4:2:0\nBit depth                                : 8 bits\nScan type                                : Progressive\nCompression mode                         : Lossy\nBits/(Pixel*Frame)                       : 0.325\nStream size                              : 1.10 GiB (81%)\nWriting library                          : XviD 64\n\nAudio\nID                                       : 1\nFormat                                   : AC-3\nFormat/Info                              : Audio Coding 3\nMode extension                           : CM (complete main)\nFormat settings, Endianness              : Big\nCodec ID                                 : 2000\nDuration                                 : 1h 32mn\nBit rate mode                            : Constant\nBit rate                                 : 384 Kbps\nChannel(s)                               : 6 channels\nChannel positions                        : Front: L C R, Side: L R, LFE\nSampling rate                            : 44.1 KHz\nBit depth                                : 16 bits\nCompression mode                         : Lossy\nStream size                              : 253 MiB (18%)\nAlignment                                : Split accross interleaves\nInterleave, duration                     : 42 ms (1.01 video frame)\nInterleave, preload duration             : 500 ms\n\n &lt;a href=&quot;\nhttp://www.shotpix.com/images/61222820670227549216.jpg&quot; rel=&quot;nofollow&quot; target=&quot;_NEW&quot;&gt;\nhttp://www.shotpix.com/images/61222820670227549216.jpg&lt;/a&gt; &lt;a href=&quot;\nhttp://www.shotpix.com/images/12994597077629601225.jpg&quot; rel=&quot;nofollow&quot; target=&quot;_NEW&quot;&gt;\nhttp://www.shotpix.com/images/12994597077629601225.jpg&lt;/a&gt; &lt;a href=&quot;\nhttp://www.shotpix.com/images/55875408695981964785.jpg&quot; rel=&quot;nofollow&quot; target=&quot;_NEW&quot;&gt;\nhttp://www.shotpix.com/images/55875408695981964785.jpg&lt;/a&gt; &lt;a href=&quot;\nhttp://www.shotpix.com/images/39898405843057273361.jpg&quot; rel=&quot;nofollow&quot; target=&quot;_NEW&quot;&gt;\nhttp://www.shotpix.com/images/39898405843057273361.jpg&lt;/a&gt;","torrent":{"xt":"urn:btih:d08c846df79b2e2ab9f5e2d32328fce6a89f6db4","amp;dn":"Taken+2+2012+DVDRIP+XVID+AC3+5.1+HS","amp;tr":["udp%3A%2F%2Ftracker.openbittorrent.com%3A80","udp%3A%2F%2Fopen.demonii.com%3A1337","udp%3A%2F%2Ftracker.coppersurfer.tk%3A6969","udp%3A%2F%2Fexodus.desync.com%3A6969"],"infoHash":"d08c846df79b2e2ab9f5e2d32328fce6a89f6db4","infoHashBuffer":{"type":"Buffer","data":[208,140,132,109,247,155,46,42,185,245,226,211,35,40,252,230,168,159,109,180]},"announce":[],"urlList":[]}}